<svg xmlns="http://www.w3.org/2000/svg" width="1600" height="1120" viewBox="0 0 1600 1120" fill="none">
  <defs>
    <linearGradient id="bg" x1="200" y1="40" x2="1400" y2="1080" gradientUnits="userSpaceOnUse">
      <stop stop-color="#F6FAF7"/>
      <stop offset="0.56" stop-color="#EEF4EF"/>
      <stop offset="1" stop-color="#E4ECE5"/>
    </linearGradient>
    <radialGradient id="glow-left" cx="0" cy="0" r="1" gradientUnits="userSpaceOnUse" gradientTransform="translate(270 220) rotate(40) scale(520 360)">
      <stop stop-color="#5DBE8A" stop-opacity="0.24"/>
      <stop offset="1" stop-color="#5DBE8A" stop-opacity="0"/>
    </radialGradient>
    <radialGradient id="glow-right" cx="0" cy="0" r="1" gradientUnits="userSpaceOnUse" gradientTransform="translate(1320 250) rotate(145) scale(460 320)">
      <stop stop-color="#6C93B8" stop-opacity="0.18"/>
      <stop offset="1" stop-color="#6C93B8" stop-opacity="0"/>
    </radialGradient>
    <linearGradient id="surface" x1="140" y1="150" x2="1460" y2="910" gradientUnits="userSpaceOnUse">
      <stop stop-color="#FCFDFC"/>
      <stop offset="1" stop-color="#F3F7F3"/>
    </linearGradient>
    <linearGradient id="dropzone" x1="0" y1="0" x2="760" y2="190" gradientUnits="userSpaceOnUse">
      <stop stop-color="#F8FBF8"/>
      <stop offset="1" stop-color="#F0F5F1"/>
    </linearGradient>
  </defs>

  <rect width="1600" height="1120" rx="48" fill="url(#bg)"/>
  <circle cx="270" cy="220" r="350" fill="url(#glow-left)"/>
  <circle cx="1320" cy="250" r="300" fill="url(#glow-right)"/>
  <path d="M0 930C206 872 455 851 748 880C1023 907 1310 976 1600 936V1120H0V930Z" fill="#E7EFE7"/>

  <rect x="156" y="172" width="1288" height="760" rx="38" fill="#15221B" opacity="0.12"/>
  <rect x="140" y="156" width="1320" height="772" rx="38" fill="url(#surface)" stroke="#D6DED6"/>
  <rect x="140" y="156" width="1320" height="84" rx="38" fill="#F5F8F4"/>
  <path d="M140 202H1460" stroke="#DCE4DC"/>
  <circle cx="190" cy="198" r="8" fill="#FF6B6B"/>
  <circle cx="218" cy="198" r="8" fill="#F7BF4F"/>
  <circle cx="246" cy="198" r="8" fill="#48C774"/>
  <rect x="880" y="180" width="420" height="36" rx="18" fill="#EDF2EE" stroke="#D7E1D9"/>
  <text x="1090" y="203" text-anchor="middle" fill="#627165" font-family="Avenir Next, Segoe UI, sans-serif" font-size="18">localhost:3000/workspaces/abc123/ingestion</text>

  <rect x="180" y="274" width="1240" height="110" rx="24" fill="#FFFFFF" stroke="#DBE3DB"/>
  <circle cx="230" cy="329" r="22" fill="#16382C"/>
  <g transform="translate(216 315)" stroke="#FFFFFF" stroke-width="2" stroke-linecap="round">
    <path d="M0 15C9 -1 19 13 28 7"/>
    <path d="M9 28C11 25 12 21 12.5 17"/>
    <path d="M19 2C17 5 16 9 15.5 13"/>
  </g>
  <text x="272" y="322" fill="#16231C" font-family="Avenir Next, Segoe UI, sans-serif" font-size="28" font-weight="700">Rosie baseline</text>
  <rect x="272" y="336" width="60" height="28" rx="14" fill="#EEF2F7" stroke="#D9E1E8"/>
  <text x="302" y="354" text-anchor="middle" fill="#274055" font-family="Avenir Next, Segoe UI, sans-serif" font-size="15" font-weight="700">Dog</text>
  <text x="348" y="354" fill="#5A6B61" font-family="Avenir Next, Segoe UI, sans-serif" font-size="16">Alignment-ready intake</text>

  <rect x="180" y="412" width="280" height="470" rx="28" fill="#F7FAF7" stroke="#DCE4DC"/>
  <text x="214" y="454" fill="#6A7A70" font-family="Avenir Next, Segoe UI, sans-serif" font-size="13" font-weight="700" letter-spacing="2.6">PIPELINE</text>

  <g font-family="Avenir Next, Segoe UI, sans-serif" font-size="18" font-weight="600">
    <rect x="204" y="482" width="232" height="44" rx="18" fill="#EAF6EE"/>
    <circle cx="232" cy="504" r="13" fill="#16382C"/>
    <text x="232" y="509" text-anchor="middle" fill="#FFFFFF" font-size="13" font-weight="700">1</text>
    <text x="256" y="510" fill="#173126">Ingestion</text>

    <g fill="#5F6F65">
      <circle cx="232" cy="556" r="13" fill="#E6EEF7"/><text x="232" y="561" text-anchor="middle" fill="#274055" font-size="13" font-weight="700">2</text><text x="256" y="562">Alignment</text>
      <circle cx="232" cy="608" r="13" fill="#F2F4F2"/><text x="232" y="613" text-anchor="middle" fill="#6C7A70" font-size="13" font-weight="700">3</text><text x="256" y="614">Variant Calling</text>
      <circle cx="232" cy="660" r="13" fill="#F2F4F2"/><text x="232" y="665" text-anchor="middle" fill="#6C7A70" font-size="13" font-weight="700">4</text><text x="256" y="666">Annotation</text>
      <circle cx="232" cy="712" r="13" fill="#F2F4F2"/><text x="232" y="717" text-anchor="middle" fill="#6C7A70" font-size="13" font-weight="700">5</text><text x="256" y="718">Neoantigen</text>
      <circle cx="232" cy="764" r="13" fill="#F2F4F2"/><text x="232" y="769" text-anchor="middle" fill="#6C7A70" font-size="13" font-weight="700">6</text><text x="256" y="770">Epitope Selection</text>
      <circle cx="232" cy="816" r="13" fill="#F2F4F2"/><text x="232" y="821" text-anchor="middle" fill="#6C7A70" font-size="13" font-weight="700">7</text><text x="256" y="822">Construct Design</text>
    </g>
  </g>

  <text x="500" y="456" fill="#16231C" font-family="Avenir Next, Segoe UI, sans-serif" font-size="34" font-weight="700">Ingestion</text>
  <text x="500" y="490" fill="#5A6B61" font-family="Avenir Next, Segoe UI, sans-serif" font-size="17">Upload sequencing files and normalize them into canonical paired FASTQ for alignment.</text>

  <rect x="500" y="528" width="878" height="178" rx="30" fill="url(#dropzone)" stroke="#D9E2DA"/>
  <circle cx="939" cy="582" r="24" fill="#E5EFE7"/>
  <g transform="translate(926 569)" stroke="#16382C" stroke-width="2" stroke-linecap="round" stroke-linejoin="round">
    <path d="M26 13V24A2 2 0 0 1 24 26H2A2 2 0 0 1 0 24V13"/>
    <polyline points="20 7 13 0 6 7"/>
    <line x1="13" y1="0" x2="13" y2="19"/>
  </g>
  <text x="939" y="632" text-anchor="middle" fill="#16231C" font-family="Avenir Next, Segoe UI, sans-serif" font-size="24" font-weight="700">Drop sequencing files here or browse</text>
  <text x="939" y="664" text-anchor="middle" fill="#5A6B61" font-family="Avenir Next, Segoe UI, sans-serif" font-size="17">Paired FASTQ preferred. Also accepts BAM and CRAM.</text>
  <rect x="858" y="676" width="162" height="42" rx="21" fill="#FFFFFF" stroke="#D9E2DA"/>
  <text x="939" y="703" text-anchor="middle" fill="#25342B" font-family="Avenir Next, Segoe UI, sans-serif" font-size="17" font-weight="700">Choose files</text>

  <rect x="500" y="730" width="560" height="152" rx="26" fill="#FFFFFF" stroke="#DBE3DB"/>
  <text x="532" y="772" fill="#16231C" font-family="Avenir Next, Segoe UI, sans-serif" font-size="23" font-weight="700">What this step expects</text>
  <rect x="532" y="792" width="496" height="38" rx="16" fill="#EBF7EF"/>
  <text x="552" y="816" fill="#146C4A" font-family="Avenir Next, Segoe UI, sans-serif" font-size="16" font-weight="700">Preferred: paired FASTQ</text>
  <text x="770" y="816" fill="#4F6256" font-family="Avenir Next, Segoe UI, sans-serif" font-size="16">.fastq.gz can become alignment-ready immediately.</text>
  <rect x="532" y="838" width="496" height="38" rx="16" fill="#F2F5F3"/>
  <text x="552" y="862" fill="#314239" font-family="Avenir Next, Segoe UI, sans-serif" font-size="16" font-weight="700">Also accepted: BAM and CRAM</text>
  <text x="794" y="862" fill="#4F6256" font-family="Avenir Next, Segoe UI, sans-serif" font-size="16">Converted into canonical R1 and R2 FASTQ in the background.</text>

  <rect x="1080" y="730" width="298" height="152" rx="26" fill="#FFFFFF" stroke="#DBE3DB"/>
  <text x="1112" y="772" fill="#16231C" font-family="Avenir Next, Segoe UI, sans-serif" font-size="23" font-weight="700">Current batch</text>
  <text x="1112" y="810" fill="#5A6B61" font-family="Avenir Next, Segoe UI, sans-serif" font-size="16">Status</text>
  <rect x="1302" y="789" width="48" height="24" rx="12" fill="#EBF7EF"/>
  <text x="1326" y="806" text-anchor="middle" fill="#146C4A" font-family="Avenir Next, Segoe UI, sans-serif" font-size="13" font-weight="700">ready</text>
  <text x="1112" y="842" fill="#5A6B61" font-family="Avenir Next, Segoe UI, sans-serif" font-size="16">Source files</text>
  <text x="1348" y="842" text-anchor="end" fill="#16231C" font-family="Avenir Next, Segoe UI, sans-serif" font-size="17" font-weight="700">2</text>
  <text x="1112" y="872" fill="#5A6B61" font-family="Avenir Next, Segoe UI, sans-serif" font-size="16">Canonical FASTQ</text>
  <text x="1348" y="872" text-anchor="end" fill="#16231C" font-family="Avenir Next, Segoe UI, sans-serif" font-size="17" font-weight="700">2</text>
  <text x="1112" y="904" fill="#146C4A" font-family="Avenir Next, Segoe UI, sans-serif" font-size="15" font-weight="600">Canonical paired FASTQ is ready for alignment.</text>

  <rect x="500" y="902" width="424" height="166" rx="26" fill="#FFFFFF" stroke="#DBE3DB"/>
  <text x="532" y="944" fill="#16231C" font-family="Avenir Next, Segoe UI, sans-serif" font-size="22" font-weight="700">Uploaded source files</text>
  <text x="532" y="972" fill="#5A6B61" font-family="Avenir Next, Segoe UI, sans-serif" font-size="15">Original files stored for this batch.</text>
  <g font-family="Avenir Next, Segoe UI, sans-serif">
    <text x="532" y="1014" fill="#16231C" font-size="16" font-weight="700">rosie_tumor_R1.fastq.gz</text>
    <text x="532" y="1038" fill="#6A7A70" font-size="14">FASTQ · uploaded Apr 8, 2026</text>
    <rect x="790" y="996" width="34" height="22" rx="11" fill="#F4F7F4" stroke="#D5DED6"/><text x="807" y="1011" text-anchor="middle" fill="#4C5D53" font-size="12" font-weight="700">R1</text>
    <rect x="830" y="996" width="52" height="22" rx="11" fill="#EBF7EF"/><text x="856" y="1011" text-anchor="middle" fill="#146C4A" font-size="12" font-weight="700">ready</text>

    <text x="532" y="1088" fill="#16231C" font-size="16" font-weight="700">rosie_tumor_R2.fastq.gz</text>
    <text x="532" y="1112" fill="#6A7A70" font-size="14">FASTQ · uploaded Apr 8, 2026</text>
    <rect x="790" y="1070" width="34" height="22" rx="11" fill="#F4F7F4" stroke="#D5DED6"/><text x="807" y="1085" text-anchor="middle" fill="#4C5D53" font-size="12" font-weight="700">R2</text>
    <rect x="830" y="1070" width="52" height="22" rx="11" fill="#EBF7EF"/><text x="856" y="1085" text-anchor="middle" fill="#146C4A" font-size="12" font-weight="700">ready</text>
  </g>

  <rect x="954" y="902" width="424" height="166" rx="26" fill="#FFFFFF" stroke="#DBE3DB"/>
  <text x="986" y="944" fill="#16231C" font-family="Avenir Next, Segoe UI, sans-serif" font-size="22" font-weight="700">Canonical FASTQ outputs</text>
  <text x="986" y="972" fill="#5A6B61" font-family="Avenir Next, Segoe UI, sans-serif" font-size="15">Derived paired FASTQ.gz files used by alignment.</text>
  <g font-family="Avenir Next, Segoe UI, sans-serif">
    <text x="986" y="1014" fill="#16231C" font-size="16" font-weight="700">canonical_R1.fastq.gz</text>
    <text x="986" y="1038" fill="#6A7A70" font-size="14">FASTQ · uploaded Apr 8, 2026</text>
    <rect x="1244" y="996" width="34" height="22" rx="11" fill="#F4F7F4" stroke="#D5DED6"/><text x="1261" y="1011" text-anchor="middle" fill="#4C5D53" font-size="12" font-weight="700">R1</text>
    <rect x="1284" y="996" width="52" height="22" rx="11" fill="#EBF7EF"/><text x="1310" y="1011" text-anchor="middle" fill="#146C4A" font-size="12" font-weight="700">ready</text>

    <text x="986" y="1088" fill="#16231C" font-size="16" font-weight="700">canonical_R2.fastq.gz</text>
    <text x="986" y="1112" fill="#6A7A70" font-size="14">FASTQ · uploaded Apr 8, 2026</text>
    <rect x="1244" y="1070" width="34" height="22" rx="11" fill="#F4F7F4" stroke="#D5DED6"/><text x="1261" y="1085" text-anchor="middle" fill="#4C5D53" font-size="12" font-weight="700">R2</text>
    <rect x="1284" y="1070" width="52" height="22" rx="11" fill="#EBF7EF"/><text x="1310" y="1085" text-anchor="middle" fill="#146C4A" font-size="12" font-weight="700">ready</text>
  </g>

  <text x="140" y="96" fill="#146C4A" font-family="Avenir Next, Segoe UI, sans-serif" font-size="18" font-weight="700" letter-spacing="5">CANCERSTUDIO</text>
</svg>
